<svg width="56" height="55" viewBox="0 0 56 55" fill="none" xmlns="http://www.w3.org/2000/svg">
<path d="M16.3333 27.5C16.3333 30.0314 14.244 32.0833 11.6667 32.0833C9.08934 32.0833 7 30.0314 7 27.5C7 24.9686 9.08934 22.9167 11.6667 22.9167C14.244 22.9167 16.3333 24.9686 16.3333 27.5Z" fill="#313E6C"/>
<path d="M49 27.5C49 30.0314 46.9107 32.0833 44.3333 32.0833C41.7559 32.0833 39.6667 30.0314 39.6667 27.5C39.6667 24.9686 41.7559 22.9167 44.3333 22.9167C46.9107 22.9167 49 24.9686 49 27.5Z" fill="#313E6C"/>
<path opacity="0.5" d="M32.6667 27.5C32.6667 30.0314 30.5774 32.0833 28 32.0833C25.4226 32.0833 23.3333 30.0314 23.3333 27.5C23.3333 24.9686 25.4226 22.9167 28 22.9167C30.5774 22.9167 32.6667 24.9686 32.6667 27.5Z" fill="#121626"/>
</svg>
