<svg width="31" height="30" viewBox="0 0 31 30" fill="none" xmlns="http://www.w3.org/2000/svg">
<path d="M29.1495 17.2327C28.0933 16.2151 26.6973 15.5954 25.2156 15.4645C26.4947 14.3657 27.3018 12.7794 27.3018 11.0073C27.3018 7.69213 24.4883 5.00568 21.0156 5.00568C17.6989 5.00568 14.9833 7.45869 14.7477 10.5675C17.6983 11.7863 19.7689 14.594 19.7689 17.8537C19.7689 19.0441 19.4852 20.2074 18.9578 21.263C19.7176 21.6422 20.4179 22.1323 21.0284 22.7204C22.5939 24.2255 23.4833 26.3064 23.4664 28.428L23.4651 28.4712L23.4637 28.508L23.4084 29.512H30.9379L31 21.561C31.0128 19.9392 30.3476 18.3838 29.1495 17.2327Z" fill="#C5BEDE"/>
<path d="M15.6574 22.3122C16.9358 21.214 17.7456 19.6271 17.7456 17.855C17.7456 14.5392 14.9307 11.8521 11.4587 11.8521C7.98605 11.8521 5.17186 14.5392 5.17186 17.855C5.17186 19.6238 5.97823 21.2095 7.25464 22.3084C3.98594 22.5502 1.40407 25.1347 1.38043 28.3171L1.3183 29.512H10.8766H21.3803L21.4424 28.4067C21.4546 26.7856 20.7887 25.2302 19.5913 24.0791C18.5337 23.0609 17.1384 22.4431 15.6574 22.3122Z" fill="#C5BEDE"/>
<path d="M4.05481 7.36197V9.59187C4.05481 10.5153 4.84092 11.2653 5.8087 11.2653C6.77783 11.2653 7.56259 10.5153 7.56259 9.59187V7.36197H9.89526C10.863 7.36197 11.6485 6.61136 11.6485 5.68729C11.6485 4.76386 10.863 4.01325 9.89526 4.01325H7.56259V1.81624C7.56259 0.892171 6.77783 0.142853 5.8087 0.142853C4.84092 0.142853 4.05481 0.892171 4.05481 1.81624V4.01261H1.75321C0.784084 4.01261 0 4.76322 0 5.68665C0 6.61072 0.784084 7.36133 1.75321 7.36133L4.05481 7.36197Z" fill="#C5BEDE"/>
</svg>
