<svg width="43" height="37" viewBox="0 0 43 37" fill="none" xmlns="http://www.w3.org/2000/svg">
<path fill-rule="evenodd" clip-rule="evenodd" d="M16.7251 7.28789V8.09903C11.9059 9.79952 8.53893 15.3848 8.66112 20.2254L8.66107 22.914C6.19401 25.643 6.33917 29.7121 12.4942 29.7121H16.7251C16.7251 30.8272 17.2302 31.8966 18.1291 32.6852C19.028 33.4738 20.2473 33.9167 21.5186 33.9167C22.79 33.9167 24.0092 33.4738 24.9081 32.6852C25.8072 31.8966 26.312 30.8272 26.312 29.7121H30.5547C36.698 29.7121 36.787 25.6345 34.3203 22.9055L34.3889 20.2291C34.513 15.3829 31.1397 9.79258 26.312 8.09452V7.28789C26.312 6.17278 25.8072 5.10333 24.9081 4.31483C24.0092 3.52633 22.79 3.08334 21.5186 3.08334C20.2473 3.08334 19.028 3.52633 18.1291 4.31483C17.2302 5.10333 16.7251 6.17277 16.7251 7.28789ZM23.1164 7.28789C23.1164 7.31634 23.1155 7.34473 23.1136 7.37297C22.5931 7.31681 22.0629 7.28789 21.5251 7.28789C20.9827 7.28789 20.4483 7.31728 19.9239 7.37434C19.9219 7.34565 19.9208 7.31681 19.9208 7.28789C19.9208 6.91619 20.0892 6.55971 20.3888 6.29687C20.6884 6.03403 21.0949 5.88637 21.5186 5.88637C21.9424 5.88637 22.3489 6.03403 22.6484 6.29687C22.9482 6.55971 23.1164 6.91619 23.1164 7.28789ZM19.9208 29.7121C19.9208 30.0838 20.0892 30.4404 20.3888 30.7032C20.6884 30.9659 21.0949 31.1136 21.5186 31.1136C21.9424 31.1136 22.3489 30.9659 22.6484 30.7032C22.9482 30.4404 23.1164 30.0838 23.1164 29.7121H19.9208ZM30.5547 26.909C31.9198 26.909 32.6562 25.5046 31.7679 24.5955C31.3362 24.1538 31.1062 23.5918 31.1211 23.0149L31.194 20.1662C31.316 15.4077 26.9515 10.0909 21.5251 10.0909C16.0999 10.0909 11.7359 15.4059 11.856 20.1633L11.928 23.0154C11.9425 23.5921 11.7126 24.1539 11.281 24.5955C10.3926 25.5046 11.1291 26.909 12.4942 26.909H30.5547Z" fill="#A99AE0"/>
</svg>
