<svg width="26" height="25" viewBox="0 0 26 25" fill="none" xmlns="http://www.w3.org/2000/svg">
<path d="M0.759888 10.5142C0.759888 16.1848 5.40492 20.7932 11.1093 20.7932C13.7375 20.7932 16.1415 19.8118 17.9699 18.2032L24.5657 24.754C24.6879 24.8754 24.8458 24.9361 25.0088 24.9361C25.1718 24.9361 25.3297 24.8754 25.4519 24.754C25.6964 24.5112 25.6964 24.1217 25.4519 23.8789L18.8511 17.3281C20.4707 15.5121 21.4588 13.1295 21.4588 10.5142C21.4588 4.84362 16.8138 0.235291 11.1093 0.235291C5.40492 0.235291 0.759888 4.84362 0.759888 10.5142ZM20.211 10.5142C20.211 15.4969 16.1262 19.5538 11.1093 19.5538C6.09251 19.5538 2.00773 15.4969 2.00773 10.5142C2.00773 5.53158 6.09251 1.47463 11.1093 1.47463C16.1262 1.47463 20.211 5.52652 20.211 10.5142Z" fill="#CDC3F1"/>
</svg>
